<?xml version="1.0" standalone="no"?>
<!DOCTYPE svg PUBLIC "-//W3C//DTD SVG 20010904//EN"
 "http://www.w3.org/TR/2001/REC-SVG-20010904/DTD/svg10.dtd">
<svg version="1.0" xmlns="http://www.w3.org/2000/svg"
 width="500.000000pt" height="500.000000pt" viewBox="0 0 500.000000 500.000000"
 preserveAspectRatio="xMidYMid meet">
<metadata>
Created by potrace 1.11, written by Peter Selinger 2001-2013
</metadata>
<g transform="translate(0.000000,500.000000) scale(0.100000,-0.100000)"
fill="#000000" stroke="none">
<path d="M794 4587 c-79 -30 -77 -22 -76 -222 0 -99 1 -190 1 -202 1 -13 13
-29 30 -39 27 -16 30 -23 30 -69 0 -45 -4 -54 -25 -65 -47 -26 -50 -102 -6
-140 l29 -25 0 -1341 0 -1340 -64 -17 c-131 -34 -230 -102 -274 -188 -21 -39
-24 -57 -23 -170 0 -118 2 -129 27 -172 158 -269 768 -264 910 8 17 33 21 60
22 152 2 145 -11 188 -74 250 -59 59 -124 95 -217 118 l-69 18 1 1331 c1 732
2 1339 3 1349 2 28 15 20 56 -35 47 -63 178 -196 255 -260 272 -226 647 -371
1015 -395 419 -28 779 51 1105 241 182 106 364 263 472 407 23 32 48 57 53 55
7 -2 10 -461 11 -1348 l1 -1345 -54 -12 c-74 -17 -184 -74 -228 -119 -63 -62
-76 -106 -77 -240 0 -131 9 -164 64 -224 109 -121 339 -178 555 -137 103 20
146 37 218 87 55 39 70 55 101 115 18 33 22 59 23 148 1 61 -3 126 -10 149
-29 95 -174 199 -315 224 -14 3 -29 7 -31 10 -9 9 -4 2691 5 2694 27 9 43 32
48 70 5 38 3 45 -27 73 -29 27 -32 36 -30 76 2 36 8 52 31 73 l29 27 -1 189
c-1 216 -1 215 -81 239 -92 27 -209 15 -254 -28 -22 -20 -23 -26 -23 -213 0
-186 1 -194 22 -214 12 -11 25 -20 30 -20 4 0 8 -25 8 -55 0 -46 -3 -56 -22
-67 -13 -7 -34 -13 -48 -14 -14 -1 -32 -2 -42 -3 -9 0 -40 -31 -69 -68 -154
-199 -398 -383 -639 -483 -87 -36 -285 -95 -350 -104 -25 -3 -67 -10 -95 -14
-66 -9 -361 -9 -449 1 -298 33 -620 171 -853 365 -81 68 -187 178 -226 234
-36 54 -79 79 -119 71 -17 -3 -28 -1 -28 6 0 6 -7 11 -15 11 -8 0 -15 6 -16
13 0 6 -2 30 -4 51 -2 33 2 44 28 68 l32 28 0 178 c1 97 -2 188 -5 202 -9 40
-70 64 -165 66 -44 1 -94 -3 -111 -9z"/>
</g>
</svg>
